<?xml version="1.0" encoding="utf-8"?>
<!-- Generator: Adobe Illustrator 21.0.2, SVG Export Plug-In . SVG Version: 6.00 Build 0)  -->
<svg version="1.1" id="Layer_1" xmlns="http://www.w3.org/2000/svg" xmlns:xlink="http://www.w3.org/1999/xlink" x="0px" y="0px"
	 viewBox="0 0 1080 459" enable-background="new 0 0 1080 459" xml:space="preserve">
<g>
	<rect y="0" width="1080" height="459"/>
	<g>
		<path fill="#FFFFFF" d="M943.8,188.8c-5.5-12-12.9-22.2-22.3-30.7c-9.4-8.5-20.4-15.1-33.1-19.7c-12.6-4.7-26.1-7-40.4-7
			c-14.3,0-27.8,2.3-40.5,7c-12.6,4.7-23.7,11.2-33.1,19.7c-9.4,8.5-16.9,18.7-22.3,30.7c-5.5,12-8.2,25.4-8.2,40.2
			c0,15.1,2.7,28.7,8.2,40.6c5.5,11.9,12.9,22,22.3,30.3c9.4,8.3,20.4,14.7,33.1,19.1c12.6,4.4,26.1,6.6,40.5,6.6
			c14.3,0,27.8-2.2,40.4-6.6c12.6-4.4,23.7-10.8,33.1-19.1c9.4-8.3,16.9-18.4,22.3-30.3c5.5-11.9,8.2-25.4,8.2-40.6
			C952.1,214.2,949.3,200.8,943.8,188.8z M873.4,256.2c-6.5,6.7-15,10-25.5,10c-10.5,0-19-3.3-25.5-10c-6.5-6.7-9.7-15.4-9.7-26.2
			c0-5,0.8-9.7,2.5-14.1c1.7-4.4,4-8.3,7-11.7c3-3.4,6.7-6.1,11-8c4.3-1.9,9.2-2.9,14.7-2.9c5.5,0,10.4,1,14.7,2.9
			c4.3,1.9,8,4.6,11,8c3,3.4,5.3,7.3,7,11.7c1.7,4.4,2.5,9.1,2.5,14.1C883.2,240.8,879.9,249.5,873.4,256.2z"/>
		<path fill="#FFFFFF" d="M456.3,241.2c0,3.7-0.1,7.2-0.4,10.5c-0.2,3.3-1,6.3-2.1,8.9c-1.2,2.6-3,4.6-5.6,6.1
			c-2.6,1.5-6.1,2.2-10.6,2.2c-4.5,0-8-0.7-10.6-2.2c-2.6-1.5-4.5-3.5-5.6-6.1c-1.2-2.6-1.9-5.5-2.1-8.9c-0.2-3.3-0.4-6.8-0.4-10.5
			V138.2h-68.4v109.6c0,13.8,2.1,25.7,6.2,35.7c4.2,10,10,18.3,17.6,24.8c7.6,6.6,16.7,11.4,27.5,14.6c10.7,3.2,22.7,4.7,35.8,4.7
			c13.1,0,25.1-1.6,35.8-4.7c10.7-3.2,19.9-8,27.5-14.6c7.6-6.6,13.4-14.9,17.6-24.8c4.2-10,6.2-21.9,6.2-35.7V138.2h-68.4V241.2z"
			/>
		<path fill="#FFFFFF" d="M661.9,206.1c-4.3-1.2-8.6-2.4-13-3.5c-4-1-7.5-2.1-10.6-3.4c-2.7-1.1-4.8-2.4-6.4-3.9
			c-2.2-2.1-2.1-7.9,2.3-10.5c5.9-3.5,16.2-4.2,26.9-0.5c6,2,11.1,3.8,17.8,6.5l8,3.1l22.8-44.4l-6.4-3c-10.2-4.7-21-8.3-32.1-10.8
			c-23.2-5.1-45.2-4.9-62.7,0.7c-9.3,3-17.3,7.2-23.8,12.7c-6.6,5.5-11.7,12.2-15.4,19.9c-3.6,7.7-5.5,16.4-5.5,25.8
			c0,9.5,1.8,17.6,5.4,24.1c3.5,6.3,8.2,11.7,13.9,15.8c5.5,4,11.8,7.3,18.8,9.6c6.5,2.2,13.2,4.3,19.9,6.1
			c5.5,1.6,10.2,3.1,14.1,4.5c3.4,1.2,6.2,2.4,8.2,3.7c1.9,1.3,2.8,2.3,3.1,3c0.5,1,0.8,2.1,0.8,3.6c0,1.4-0.4,3.7-3.8,6.4
			c-2.9,2.3-7.9,3.5-14.7,3.5c-6.5,0-13.3-1.3-20-3.9c-7-2.7-10.3-3.5-20.7-8.8l-8.4-4.5L557,303.5l3.5,2.3
			c22.3,13.4,45.2,19.8,71.4,19.8c12.7,0,24.2-1.5,34.3-4.5c10.3-3,19.2-7.4,26.3-12.9c7.3-5.7,13-12.6,16.9-20.6
			c3.8-8,5.8-16.9,5.8-26.6c0-14.7-4.5-24.5-13.5-33.8C693.2,218.3,679.8,211.2,661.9,206.1z"/>
		<polygon fill="#FFFFFF" points="229.9,152 178.9,152 178.9,203 127.9,203 127.9,254 178.9,254 178.9,305 229.9,305 229.9,254 
			280.9,254 280.9,203 229.9,203 		"/>
	</g>
</g>
</svg>
